<?xml version="1.0" standalone="no"?>
<!DOCTYPE svg PUBLIC "-//W3C//DTD SVG 20010904//EN"
 "http://www.w3.org/TR/2001/REC-SVG-20010904/DTD/svg10.dtd">
<svg version="1.0" xmlns="http://www.w3.org/2000/svg"
 width="50.000000pt" height="50.000000pt" viewBox="0 0 50.000000 50.000000"
 preserveAspectRatio="xMidYMid meet">
<g transform="translate(0.000000,50.000000) scale(0.100000,-0.100000)"
fill="#000000" stroke="none">
<path d="M86 474 c-22 -21 -20 -46 5 -78 l20 -26 -50 0 -51 0 0 -55 c0 -30 5
-55 10 -55 6 0 10 -48 10 -125 l0 -125 220 0 220 0 0 125 c0 77 4 125 10 125
6 0 10 25 10 55 l0 55 -50 0 -51 0 22 29 c27 37 20 78 -15 87 -40 10 -63 -4
-96 -56 -19 -30 -39 -50 -50 -50 -11 0 -31 20 -49 49 -41 64 -81 79 -115 45z
m66 -16 c8 -7 25 -28 37 -45 l22 -33 -30 0 c-60 0 -108 44 -86 79 9 15 38 14
57 -1z m253 1 c22 -35 -26 -79 -86 -79 l-30 0 22 33 c37 54 77 74 94 46z
m-215 -144 l0 -35 -80 0 -80 0 0 35 0 35 80 0 80 0 0 -35z m100 -125 l0 -160
-40 0 -40 0 0 160 0 160 40 0 40 0 0 -160z m180 125 l0 -35 -80 0 -80 0 0 35
0 35 80 0 80 0 0 -35z m-280 -170 l0 -115 -70 0 -70 0 0 115 0 115 70 0 70 0
0 -115z m260 0 l0 -115 -70 0 -70 0 0 115 0 115 70 0 70 0 0 -115z"/>
</g>
</svg>
